<svg width="400" height="300" viewBox="0 0 400 300" xmlns="http://www.w3.org/2000/svg">
  <defs>
    <linearGradient id="blueGrad" x1="0%" y1="0%" x2="100%" y2="100%">
      <stop offset="0%" style="stop-color:#1e40af;stop-opacity:1" />
      <stop offset="50%" style="stop-color:#3b82f6;stop-opacity:0.8" />
      <stop offset="100%" style="stop-color:#3b82f6;stop-opacity:0.6" />
    </linearGradient>
    
    <linearGradient id="silverGrad" x1="0%" y1="0%" x2="100%" y2="100%">
      <stop offset="0%" style="stop-color:#6b7280;stop-opacity:0.9" />
      <stop offset="50%" style="stop-color:#9ca3af;stop-opacity:0.7" />
      <stop offset="100%" style="stop-color:#9ca3af;stop-opacity:0.5" />
    </linearGradient>
  </defs>
  
  <!-- Letter L - Outer structure -->
  <path d="M50 50 L50 150 L150 150 L150 130 L70 130 L70 50 Z" fill="url(#blueGrad)"/>
  
  <!-- Letter B - Inside the L -->
  <path d="M78 55 L78 115 L98 115 L98 55 Z" fill="url(#silverGrad)"/>
  <path d="M78 55 L118 55 Q125 55 125 65 Q125 72 120 75 Q115 77 110 77 L78 77 Z" fill="url(#silverGrad)"/>
  <path d="M78 77 L108 77 L108 83 L78 83 Z" fill="url(#silverGrad)"/>
  <path d="M78 83 L130 83 Q145 83 145 100 Q145 110 140 115 Q135 115 125 115 L78 115 Z" fill="url(#silverGrad)"/>
  
  <!-- Camera lens -->
  <circle cx="115" cy="100" r="10" fill="none" stroke="url(#silverGrad)" stroke-width="2"/>
  <circle cx="115" cy="100" r="6" fill="url(#blueGrad)"/>
  <circle cx="115" cy="100" r="3" fill="#1e40af"/>
  
  <!-- Network elements -->
  <circle cx="95" cy="63" r="2" fill="#3b82f6"/>
  <circle cx="102" cy="61" r="1.5" fill="#3b82f6"/>
  <circle cx="107" cy="64" r="1.5" fill="#3b82f6"/>
  <circle cx="104" cy="69" r="1.5" fill="#3b82f6"/>
  <line x1="95" y1="63" x2="102" y2="61" stroke="#3b82f6" stroke-width="1"/>
  <line x1="102" y1="61" x2="107" y2="64" stroke="#3b82f6" stroke-width="1"/>
  <line x1="107" y1="64" x2="104" y2="69" stroke="#3b82f6" stroke-width="1"/>
  <line x1="104" y1="69" x2="95" y2="63" stroke="#3b82f6" stroke-width="1"/>
  
  <!-- Text -->
  <text x="50" y="200" font-family="Arial, sans-serif" font-size="28" font-weight="bold" fill="#1e40af">LABABIL</text>
  <text x="50" y="225" font-family="Arial, sans-serif" font-size="18" font-weight="normal" fill="#6b7280">solution</text>
</svg>
